<?xml version="1.0" encoding="UTF-8" standalone="no"?>
<!DOCTYPE svg PUBLIC "-//W3C//DTD SVG 1.1//EN"
 "http://www.w3.org/Graphics/SVG/1.1/DTD/svg11.dtd">
<!-- Generated by graphviz version 2.38.0 (20140413.2041)
 -->
<!-- Title: controllers_diagram Pages: 1 -->
<svg width="368pt" height="342pt"
 viewBox="0.00 0.00 367.50 342.00" xmlns="http://www.w3.org/2000/svg" xmlns:xlink="http://www.w3.org/1999/xlink">
<g id="graph0" class="graph" transform="scale(1 1) rotate(0) translate(124 218)">
<title>controllers_diagram</title>
<polygon fill="none" stroke="none" points="-124,124 -124,-218 243.5,-218 243.5,124 -124,124"/>
<!-- _diagram_info -->
<g id="node1" class="node"><title>_diagram_info</title>
<text text-anchor="start" x="-112" y="-18.6" font-family="Times,serif" font-size="13.00">Controllers diagram</text>
<text text-anchor="start" x="-112" y="-4.6" font-family="Times,serif" font-size="13.00">Date: Mar 06 2018 &#45; 12:24</text>
<text text-anchor="start" x="-112" y="9.4" font-family="Times,serif" font-size="13.00">Migration version: 20180306150956</text>
<text text-anchor="start" x="-112" y="23.4" font-family="Times,serif" font-size="13.00">Generated by RailRoady 1.5.3</text>
<text text-anchor="start" x="-112" y="37.4" font-family="Times,serif" font-size="13.00">http://railroady.prestonlee.com</text>
</g>
<!-- ProductsController -->
<g id="node2" class="node"><title>ProductsController</title>
<path fill="none" stroke="black" d="M132.5,119.5C132.5,119.5 227.5,119.5 227.5,119.5 233.5,119.5 239.5,113.5 239.5,107.5 239.5,107.5 239.5,38.5 239.5,38.5 239.5,32.5 233.5,26.5 227.5,26.5 227.5,26.5 132.5,26.5 132.5,26.5 126.5,26.5 120.5,32.5 120.5,38.5 120.5,38.5 120.5,107.5 120.5,107.5 120.5,113.5 126.5,119.5 132.5,119.5"/>
<text text-anchor="middle" x="180" y="41.7" font-family="Times,serif" font-size="14.00">ProductsController</text>
<polyline fill="none" stroke="black" points="120.5,49.5 239.5,49.5 "/>
<text text-anchor="start" x="128.5" y="64.7" font-family="Times,serif" font-size="14.00">index</text>
<polyline fill="none" stroke="black" points="120.5,72.5 239.5,72.5 "/>
<polyline fill="none" stroke="black" points="120.5,96.5 239.5,96.5 "/>
<text text-anchor="start" x="128.5" y="111.7" font-family="Times,serif" font-size="14.00">_layout</text>
</g>
<!-- OrdersController -->
<g id="node3" class="node"><title>OrdersController</title>
<path fill="none" stroke="black" d="M72.5,-60.5C72.5,-60.5 157.5,-60.5 157.5,-60.5 163.5,-60.5 169.5,-66.5 169.5,-72.5 169.5,-72.5 169.5,-201.5 169.5,-201.5 169.5,-207.5 163.5,-213.5 157.5,-213.5 157.5,-213.5 72.5,-213.5 72.5,-213.5 66.5,-213.5 60.5,-207.5 60.5,-201.5 60.5,-201.5 60.5,-72.5 60.5,-72.5 60.5,-66.5 66.5,-60.5 72.5,-60.5"/>
<text text-anchor="middle" x="115" y="-198.3" font-family="Times,serif" font-size="14.00">OrdersController</text>
<polyline fill="none" stroke="black" points="60.5,-190.5 169.5,-190.5 "/>
<text text-anchor="start" x="68.5" y="-175.3" font-family="Times,serif" font-size="14.00">create</text>
<text text-anchor="start" x="68.5" y="-160.3" font-family="Times,serif" font-size="14.00">destroy</text>
<text text-anchor="start" x="68.5" y="-145.3" font-family="Times,serif" font-size="14.00">empty_cart</text>
<text text-anchor="start" x="68.5" y="-130.3" font-family="Times,serif" font-size="14.00">index</text>
<polyline fill="none" stroke="black" points="60.5,-122.5 169.5,-122.5 "/>
<polyline fill="none" stroke="black" points="60.5,-98.5 169.5,-98.5 "/>
<text text-anchor="start" x="68.5" y="-83.3" font-family="Times,serif" font-size="14.00">_layout</text>
<text text-anchor="start" x="68.5" y="-68.3" font-family="Times,serif" font-size="14.00">set_cart</text>
</g>
<!-- ApplicationController -->
<g id="node4" class="node"><title>ApplicationController</title>
<path fill="none" stroke="black" d="M-93,-106C-93,-106 19,-106 19,-106 25,-106 31,-112 31,-118 31,-118 31,-188 31,-188 31,-194 25,-200 19,-200 19,-200 -93,-200 -93,-200 -99,-200 -105,-194 -105,-188 -105,-188 -105,-118 -105,-118 -105,-112 -99,-106 -93,-106"/>
<text text-anchor="middle" x="-37" y="-184.8" font-family="Times,serif" font-size="14.00">ApplicationController</text>
<polyline fill="none" stroke="black" points="-105,-177 31,-177 "/>
<polyline fill="none" stroke="black" points="-105,-153 31,-153 "/>
<polyline fill="none" stroke="black" points="-105,-129 31,-129 "/>
<text text-anchor="start" x="-97" y="-113.8" font-family="Times,serif" font-size="14.00">_layout</text>
</g>
</g>
</svg>
